<svg width="42" height="15" viewBox="0 0 42 15" fill="none" xmlns="http://www.w3.org/2000/svg">
<path d="M30.4894 5.6992H29.0647V10.582C29.0647 10.6265 29.0469 10.6692 29.0155 10.7006C28.984 10.7321 28.9414 10.7498 28.8969 10.7499H27.7982C27.7537 10.7498 27.711 10.7321 27.6796 10.7006C27.6481 10.6692 27.6304 10.6265 27.6303 10.582V5.6992H26.1972C26.1757 5.70009 26.1541 5.69663 26.1339 5.68904C26.1137 5.68144 26.0952 5.66986 26.0796 5.65499C26.0639 5.64011 26.0514 5.62224 26.0428 5.60244C26.0342 5.58263 26.0296 5.5613 26.0294 5.5397V4.67604C26.0296 4.65445 26.0342 4.63311 26.0428 4.61331C26.0514 4.59351 26.0639 4.57564 26.0796 4.56076C26.0952 4.54588 26.1137 4.5343 26.1339 4.52671C26.1541 4.51911 26.1757 4.51566 26.1972 4.51654H30.4891C30.5336 4.51446 30.5771 4.53006 30.6101 4.55995C30.6431 4.58983 30.663 4.63157 30.6653 4.67604V5.54005C30.6629 5.5844 30.643 5.626 30.6101 5.6558C30.5772 5.6856 30.5338 5.7012 30.4894 5.6992Z" fill="#333056"/>
<path d="M35.0629 10.7146C34.7693 10.7564 34.2755 10.8236 33.3697 10.8236C32.2877 10.8236 31.3318 10.5467 31.3318 9.02035V6.23434C31.3318 4.70795 32.2964 4.43945 33.3781 4.43945C34.2835 4.43945 34.7693 4.50667 35.0629 4.54846C35.1803 4.56517 35.2308 4.60731 35.2308 4.71631V5.49744C35.2307 5.54193 35.213 5.58457 35.1815 5.61603C35.1501 5.64749 35.1074 5.66521 35.0629 5.6653H33.2945C32.9003 5.6653 32.7578 5.79937 32.7578 6.23573V6.9991H34.9961C35.0405 6.99919 35.0832 7.01691 35.1146 7.04836C35.1461 7.07982 35.1638 7.12247 35.1639 7.16696V7.96375C35.1638 8.00824 35.1461 8.05089 35.1146 8.08235C35.0832 8.1138 35.0405 8.13152 34.9961 8.13161H32.7578V9.0207C32.7578 9.45671 32.9003 9.59113 33.2945 9.59113H35.0629C35.1074 9.59122 35.1501 9.60894 35.1815 9.6404C35.213 9.67186 35.2307 9.7145 35.2308 9.75899V10.5391C35.2308 10.6474 35.1803 10.6979 35.0629 10.7146Z" fill="#333056"/>
<path d="M41.391 10.748H40.0575C39.9485 10.748 39.898 10.7132 39.8395 10.6223L38.6833 8.7867L37.6358 10.5819C37.5769 10.6826 37.5184 10.7498 37.4268 10.7498H36.1857C36.1017 10.7498 36.0599 10.6993 36.0599 10.6408C36.0616 10.6203 36.0672 10.6003 36.0767 10.5819L37.8935 7.55215L36.0579 4.67525C36.0485 4.65989 36.0428 4.64263 36.0411 4.62475C36.0441 4.59394 36.0589 4.56545 36.0822 4.54517C36.1056 4.52488 36.1359 4.51435 36.1669 4.51575H37.517C37.6093 4.51575 37.6765 4.59968 37.726 4.67525L38.7989 6.36949L39.8374 4.67525C39.8792 4.59968 39.9548 4.51575 40.0464 4.51575H41.2875C41.3185 4.51435 41.3488 4.52488 41.3721 4.54517C41.3955 4.56545 41.4103 4.59394 41.4133 4.62475C41.4116 4.64263 41.4058 4.65989 41.3965 4.67525L39.57 7.56991L41.4749 10.5819C41.4898 10.6075 41.4984 10.6363 41.5 10.6659C41.5003 10.7146 41.4582 10.748 41.391 10.748Z" fill="#333056"/>
<path d="M24.0192 4.53327C23.9893 4.53335 23.9603 4.5438 23.9372 4.56285C23.9141 4.5819 23.8983 4.60836 23.8925 4.63775L22.675 9.14377C22.6583 9.23605 22.6332 9.26949 22.5576 9.26949C22.4821 9.26949 22.457 9.23466 22.4403 9.14377L21.2214 4.6367C21.2156 4.60732 21.1998 4.58085 21.1767 4.5618C21.1536 4.54276 21.1246 4.5323 21.0946 4.53223H19.8963C19.8768 4.53225 19.8576 4.53666 19.84 4.54515C19.8225 4.55363 19.8071 4.56596 19.795 4.58123C19.7828 4.59649 19.7743 4.61429 19.77 4.6333C19.7658 4.65231 19.7658 4.67204 19.7702 4.69103C19.7702 4.69103 21.2573 9.85873 21.2736 9.90957C21.4721 10.5253 21.9538 10.8196 22.5667 10.8196C23.1503 10.8196 23.6598 10.5113 23.859 9.91131C23.8827 9.84166 25.3367 4.69068 25.3367 4.69068C25.341 4.67172 25.341 4.65203 25.3367 4.63306C25.3324 4.61409 25.3239 4.59634 25.3118 4.58112C25.2997 4.5659 25.2843 4.5536 25.2668 4.54514C25.2492 4.53667 25.2301 4.53226 25.2106 4.53223L24.0192 4.53327Z" fill="#333056"/>
<path d="M16.636 0H3.61136C2.60143 0 1.95473 1.07366 2.4273 1.96623L3.73011 4.43324H1.36827C1.2187 4.43328 1.07167 4.47195 0.941436 4.5455C0.811198 4.61906 0.702162 4.725 0.624888 4.85306C0.547615 4.98113 0.504723 5.12698 0.500368 5.27649C0.496014 5.426 0.530343 5.5741 0.600031 5.70644L4.79054 13.6379C4.86441 13.7774 4.9749 13.8941 5.11014 13.9755C5.24537 14.0569 5.40023 14.0999 5.55808 14.0999C5.71593 14.0999 5.87079 14.0569 6.00603 13.9755C6.14126 13.8941 6.25175 13.7774 6.32563 13.6379L7.46371 11.4954L8.89154 14.1985C9.39407 15.1493 10.7554 15.151 11.2596 14.2013L17.788 1.91643C18.2494 1.04754 17.6198 0 16.636 0ZM10.7853 5.24884L7.97042 10.5471C7.92122 10.6399 7.84768 10.7175 7.75771 10.7716C7.66773 10.8258 7.56471 10.8544 7.45971 10.8544C7.3547 10.8544 7.25168 10.8258 7.16171 10.7716C7.07173 10.7175 6.9982 10.6399 6.949 10.5471L4.16125 5.27113C4.11465 5.18316 4.09156 5.08465 4.09421 4.98515C4.09686 4.88564 4.12516 4.7885 4.17637 4.70314C4.22758 4.61777 4.29997 4.54708 4.38652 4.49791C4.47306 4.44873 4.57085 4.42274 4.67039 4.42244H10.2887C10.3858 4.42244 10.4812 4.44756 10.5657 4.49535C10.6501 4.54315 10.7208 4.61198 10.7708 4.69517C10.8208 4.77836 10.8484 4.87307 10.8509 4.97009C10.8535 5.06711 10.8309 5.16314 10.7853 5.24884Z" fill="#333056"/>
</svg>
